<?xml version="1.0" standalone="no"?><!DOCTYPE svg PUBLIC "-//W3C//DTD SVG 1.1//EN" "http://www.w3.org/Graphics/SVG/1.1/DTD/svg11.dtd"><svg t="1631869374286" class="icon" viewBox="0 0 1024 1024" version="1.1" xmlns="http://www.w3.org/2000/svg" p-id="2389" xmlns:xlink="http://www.w3.org/1999/xlink" width="18" height="18"><defs><style type="text/css"></style></defs><path d="M650.666667 298.666667a32 32 0 0 1 0 64h-106.666667v435.498666c129.578667-15.018667 235.285333-119.765333 253.290667-247.552l0.853333-6.613333h-80.533333l-3.072-0.149333a32 32 0 0 1 3.072-63.850667H832l3.093333 0.149333A32 32 0 0 1 864 512c0 190.592-159.445333 352-352 352-190.592 0-352-165.482667-352-352A32 32 0 0 1 192 480h114.304l3.093333 0.149333A32 32 0 0 1 338.304 512l-0.149333 3.093333a32 32 0 0 1-31.850667 28.906667h-80.341333l0.746666 5.504c18.133333 125.504 125.12 232.96 253.290667 248.554667V362.666667h-106.666667a32 32 0 0 1 0-64h277.333334z" fill="#2674FD" p-id="2390"></path><path d="M937.941333 830.165333a32 32 0 0 1 44.117334 46.336c-80.170667 76.373333-162.346667 115.498667-246.058667 115.498667-52.693333 0-82.090667-14.592-123.797333-52.586667l-10.261334-9.578666C565.333333 894.997333 548.437333 885.333333 512 885.333333c-34.858667 0-51.84 8.832-85.269333 40.106667l-4.672 4.394667C374.656 974.997333 344.896 992 288 992c-83.712 0-165.888-39.125333-246.058667-115.498667a32 32 0 0 1 44.117334-46.336C155.221333 896 222.378667 928 288 928c34.858667 0 51.84-8.832 85.269333-40.106667l4.672-4.394666C425.344 838.336 455.104 821.333333 512 821.333333c52.693333 0 82.090667 14.592 123.797333 52.586667l10.261334 9.578667C682.666667 918.336 699.562667 928 736 928c65.621333 0 132.778667-32 201.941333-97.834667z" fill="#BED5FF" p-id="2391"></path><path d="M512 21.333333a117.333333 117.333333 0 1 1 0 234.666667 117.333333 117.333333 0 0 1 0-234.666667z m0 64a53.333333 53.333333 0 1 0 0 106.666667 53.333333 53.333333 0 0 0 0-106.666667z" fill="#39EAC2" p-id="2392"></path></svg>